<svg width="28" height="23" viewBox="0 0 28 23" fill="none" xmlns="http://www.w3.org/2000/svg">
<g clip-path="url(#clip0)">
<path d="M4.54817 16.9267C4.71714 16.7577 4.94947 16.6592 5.19589 16.6592H27.5424C27.9507 16.6592 28.1549 17.152 27.8662 17.4407L23.4519 21.8551C23.2829 22.024 23.0506 22.1226 22.8041 22.1226H0.457647C0.0492988 22.1226 -0.154875 21.6298 0.133785 21.3411L4.54817 16.9267Z" fill="#B5C8F1"/>
<path d="M4.54737 0.445029C4.72339 0.276057 4.95572 0.17749 5.1951 0.17749H27.5416C27.9499 0.17749 28.1541 0.670324 27.8655 0.958984L23.4511 5.37337C23.2821 5.54234 23.0498 5.6409 22.8033 5.6409H0.456853C0.0485053 5.6409 -0.155669 5.14807 0.132991 4.85941L4.54737 0.445029Z" fill="#B5C8F1"/>
<path d="M23.4519 8.63302C23.2829 8.46404 23.0506 8.36548 22.8041 8.36548H0.457647C0.0492988 8.36548 -0.154875 8.85831 0.133785 9.14697L4.54817 13.5614C4.71714 13.7303 4.94947 13.8289 5.19589 13.8289H27.5424C27.9507 13.8289 28.1549 13.3361 27.8662 13.0474L23.4519 8.63302Z" fill="#B5C8F1"/>
</g>
<defs>
<clipPath id="clip0">
<rect width="28" height="21.9452" fill="white" transform="translate(0 0.17749)"/>
</clipPath>
</defs>
</svg>
