<svg width="30" height="30" viewBox="0 0 30 30" fill="none" xmlns="http://www.w3.org/2000/svg">
<path fill-rule="evenodd" clip-rule="evenodd" d="M15.0068 -6.79493e-06H15.0205C15.7708 -6.79493e-06 16.3711 0.600266 16.3711 1.35061V2.67394C16.3711 3.42428 15.7708 4.02455 15.0068 4.01091H14.9932C14.2428 4.01091 13.6426 3.41063 13.6426 2.66029V1.35061C13.6426 0.600266 14.2428 -6.79493e-06 15.0068 -6.79493e-06ZM6.88951 4.89767L6.35745 4.36561C5.82539 3.83355 4.96591 3.84719 4.44749 4.36561L4.43385 4.37925C3.90179 4.91131 3.90179 5.77079 4.43385 6.28921L4.96591 6.82127C5.49797 7.35333 6.3438 7.35333 6.87586 6.82127L6.88951 6.80763C7.42157 6.28921 7.42157 5.41609 6.88951 4.89767ZM2.74216 13.5743H1.35061C0.600273 13.5743 0 14.1746 0 14.9249V14.9385C0 15.6889 0.600273 16.2892 1.35061 16.2892H2.72851C3.4925 16.3028 4.09277 15.7025 4.09277 14.9522V14.9385C4.09277 14.1746 3.4925 13.5743 2.74216 13.5743ZM25.5798 4.3793C25.0478 3.84724 24.1883 3.84724 23.6562 4.36566L23.1242 4.89772C22.5921 5.42978 22.5921 6.28926 23.1242 6.80768L23.1378 6.82132C23.6699 7.35338 24.5293 7.35338 25.0478 6.82132L25.5798 6.28926C26.1119 5.7572 26.1119 4.91136 25.5798 4.3793ZM23.6426 25.5115L23.1105 24.9795C22.5784 24.4474 22.5784 23.6016 23.1242 23.0559C23.6426 22.5375 24.5021 22.5238 25.0341 23.0559L25.5662 23.5879C26.0982 24.12 26.0982 24.9795 25.5662 25.5115C25.0341 26.0436 24.1746 26.0436 23.6426 25.5115ZM25.9209 14.9249V14.9385C25.9209 15.6889 26.5211 16.2892 27.2715 16.2892H28.6494C29.3997 16.2892 30 15.6889 30 14.9385V14.9249C30 14.1746 29.3997 13.5743 28.6494 13.5743H27.2715C26.5211 13.5743 25.9209 14.1746 25.9209 14.9249ZM6.82128 14.9385C6.82128 10.4228 10.4911 6.75292 15.0068 6.75292C19.5225 6.75292 23.1924 10.4228 23.1924 14.9385C23.1924 19.4541 19.5225 23.124 15.0068 23.124C10.4911 23.124 6.82128 19.4541 6.82128 14.9385ZM14.9932 29.8771H15.0068C15.7572 29.8771 16.3574 29.2768 16.3574 28.5265V27.2168C16.3574 26.4664 15.7572 25.8662 15.0068 25.8662H14.9932C14.2428 25.8662 13.6426 26.4664 13.6426 27.2168V28.5265C13.6426 29.2768 14.2428 29.8771 14.9932 29.8771ZM6.35744 25.498C5.82538 26.03 4.9659 26.03 4.43384 25.498C3.90178 24.9659 3.90178 24.1201 4.42019 23.5744L4.95225 23.0423C5.20714 22.7868 5.55318 22.6433 5.91405 22.6433C6.27492 22.6433 6.62097 22.7868 6.87586 23.0423L6.8895 23.0559C7.40792 23.5744 7.42156 24.4338 6.8895 24.9659L6.35744 25.498Z" fill="#B5C8F1"/>
</svg>
