<svg width="27" height="30" viewBox="0 0 27 30" fill="none" xmlns="http://www.w3.org/2000/svg">
<path fill-rule="evenodd" clip-rule="evenodd" d="M24 3H22.5V1.5C22.5 0.675 21.825 0 21 0C20.175 0 19.5 0.675 19.5 1.5V3H7.5V1.5C7.5 0.675 6.825 0 6 0C5.175 0 4.5 0.675 4.5 1.5V3H3C1.335 3 0.015 4.35 0.015 6L0 27C0 28.65 1.335 30 3 30H24C25.65 30 27 28.65 27 27V6C27 4.35 25.65 3 24 3ZM24 25.5C24 26.325 23.325 27 22.5 27H4.49998C3.67498 27 2.99998 26.325 2.99998 25.5V10.5H24V25.5ZM8.99999 13.5H5.99999V16.5H8.99999V13.5ZM12 13.5H15V16.5H12V13.5ZM21 13.5H18V16.5H21V13.5Z" fill="#B5C8F1"/>
</svg>
